{"title":"La Vita e bella *1997* [HD][720p][ITA, POL]","uid":5952298,"size":5766518948,"categoryP":"video","categoryS":"hd___movies","magnet":"?xt=urn:btih:033ef6caf6304d6ce1e5552f95af4319ead8e9d1&amp;dn=La+Vita+e+bella+%2A1997%2A+%5BHD%5D%5B720p%5D%5BITA%2C+POL%5D&amp;tr=udp%3A%2F%2Ftracker.openbittorrent.com%3A80&amp;tr=udp%3A%2F%2Fopen.demonii.com%3A1337&amp;tr=udp%3A%2F%2Ftracker.coppersurfer.tk%3A6969&amp;tr=udp%3A%2F%2Fexodus.desync.com%3A6969","seeders":2,"leechers":1,"uploader":"albedo040","files":1,"time":1289522854,"description":"La Vita e bella *1997* [HD][720p][ITA, POL]\n\nGeneral information:\nThe life is very beautiful but not for everyone\nCountry: Italy \nRelease: May 1998 (Cannes Film Festival)\nGenre: Drama, Romance, War \nDirector: Roberto Benigni\nScreenplay:  Vincenzo Cerami, Roberto Benigni\nOriginal Music: Nicola Paviani \nCinematography by: Tonino Delli Colli \nDuration: 1h 56mn\nLanguage: Italian, Polish \nNo Subtitles\nRating: 8.4/10 - 30520 votes \n[img]http://img844.imageshack.us/img844/9034/70246913.jpg[/img]\n\n[img]http://img690.imageshack.us/img690/3017/beznazwy1qw.jpg[/img]\n\nCast:\nRoberto Benigni  ...  Guido Orefice  \nNicoletta Braschi  ...  Dora  \nGiorgio Cantarini  ...  GiosuÃƒÂ© Orefice  \nGiustino Durano  ...  Eliseo Orefice  \nSergio Bini Bustric  ...  Ferruccio Papini (as Sergio Bustric)  \nMarisa Paredes  ...  Madre di Dora  \nHorst Buchholz  ...  Doctor Lessing (as Horst Bucholz)  \nLidia Alfonsi  ...  Guicciardini  \nGiuliana Lojodice  ...  School Principal  \nAmerigo Fontani  ...  Rodolfo  \nPietro De Silva  ...  Bartolomeo  \nFrancesco Guzzo  ...  Vittorino  \nRaffaella Lebboroni  ...  Elena  \nClaudio Alfonsi  ...  Amico Rodolfo  \nGil Baroni  ...  Prefect  \n\nPlot:\nA Jewish man has a wonderful romance with the help of his humour, but must use that same quality to protect his son in a Nazi death camp. \n\nSpecifications:\nGeneral\nFormat                           : Matroska\nOverall bit rate                 : 6 616 Kbps\n\nVideo\nFormat                           : AVC\nFormat/Info                      : Advanced Video Codec\nFormat profile                   : &lt;a class=&quot;__cf_email__&quot; href=&quot;/cdn-cgi/l/email-protection&quot; data-cfemail=&quot;1d55747a755d5129332c&quot;&gt;[email&amp;#160;protected]&lt;/a&gt;&lt;script cf-hash='f9e31' type=&quot;text/javascript&quot;&gt;\n/* &lt;![CDATA[ */!function(){try{var t=&quot;currentScript&quot;in document?document.currentScript:function(){for(var t=document.getElementsByTagName(&quot;script&quot;),e=t.length;e--;)if(t[e].getAttribute(&quot;cf-hash&quot;))return t[e]}();if(t&amp;&amp;t.previousSibling){var e,r,n,i,c=t.previousSibling,a=c.getAttribute(&quot;data-cfemail&quot;);if(a){for(e=&quot;&quot;,r=parseInt(a.substr(0,2),16),n=2;a.length-n;n+=2)i=parseInt(a.substr(n,2),16)^r,e+=String.fromCharCode(i);e=document.createTextNode(e),c.parentNode.replaceChild(e,c)}}}catch(u){}}();/* ]]&gt; */&lt;/script&gt;\nFormat settings, CABAC           : Yes\nFormat settings, ReFrames        : 8 frames\nMuxing mode                      : Container profile=&lt;a class=&quot;__cf_email__&quot; href=&quot;/cdn-cgi/l/email-protection&quot; data-cfemail=&quot;0653686d6869716846322837&quot;&gt;[email&amp;#160;protected]&lt;/a&gt;&lt;script cf-hash='f9e31' type=&quot;text/javascript&quot;&gt;\n/* &lt;![CDATA[ */!function(){try{var t=&quot;currentScript&quot;in document?document.currentScript:function(){for(var t=document.getElementsByTagName(&quot;script&quot;),e=t.length;e--;)if(t[e].getAttribute(&quot;cf-hash&quot;))return t[e]}();if(t&amp;&amp;t.previousSibling){var e,r,n,i,c=t.previousSibling,a=c.getAttribute(&quot;data-cfemail&quot;);if(a){for(e=&quot;&quot;,r=parseInt(a.substr(0,2),16),n=2;a.length-n;n+=2)i=parseInt(a.substr(n,2),16)^r,e+=String.fromCharCode(i);e=document.createTextNode(e),c.parentNode.replaceChild(e,c)}}}catch(u){}}();/* ]]&gt; */&lt;/script&gt;\nCodec ID                         : V_MPEG4/ISO/AVC\nDuration                         : 1h 56mn\nBit rate                         : 4 664 Kbps\nWidth                            : 1 280 pixels\nHeight                           : 694 pixels\nDisplay aspect ratio             : 16:9\nFrame rate                       : 23.976 fps\n\nAudio 1\nFormat                           : DTS\nFormat/Info                      : Digital Theater Systems\nCodec ID                         : A_DTS\nBit rate mode                    : Constant\nBit rate                         : 1 510 Kbps\nChannel(s)                       : 6 channels\nChannel positions                : Front: L C R, Side: L R, LFE\nSampling rate                    : 48.0 KHz\nBit depth                        : 24 bits\nStream size                      : 1.23 GiB (23%)\nTitle                            : Italian\nLanguage                         : Italian\n\nAudio 2\nFormat                           : AC-3\nFormat/Info                      : Audio Coding 3\nMode extension                   : CM (complete main)\nCodec ID                         : A_AC3\nBit rate mode                    : Constant\nBit rate                         : 448 Kbps\nChannel(s)                       : 6 channels\nChannel positions                : Front: L C R, Side: L R, LFE\nSampling rate                    : 48.0 KHz\nVideo delay                      : 250ms\nStream size                      : 372 MiB (7%)\nTitle                            : Polish\nLanguage                         : Polish\n","torrent":{"xt":"urn:btih:033ef6caf6304d6ce1e5552f95af4319ead8e9d1","amp;dn":"La+Vita+e+bella+%2A1997%2A+%5BHD%5D%5B720p%5D%5BITA%2C+POL%5D","amp;tr":["udp%3A%2F%2Ftracker.openbittorrent.com%3A80","udp%3A%2F%2Fopen.demonii.com%3A1337","udp%3A%2F%2Ftracker.coppersurfer.tk%3A6969","udp%3A%2F%2Fexodus.desync.com%3A6969"],"infoHash":"033ef6caf6304d6ce1e5552f95af4319ead8e9d1","infoHashBuffer":{"type":"Buffer","data":[3,62,246,202,246,48,77,108,225,229,85,47,149,175,67,25,234,216,233,209]},"announce":[],"urlList":[]}}